<svg width="1600" height="900" viewBox="0 0 1600 900" fill="none" xmlns="http://www.w3.org/2000/svg">
  <defs>
    <linearGradient id="aBg" x1="0" y1="0" x2="1600" y2="900" gradientUnits="userSpaceOnUse">
      <stop offset="0" stop-color="#0A1325"/>
      <stop offset="1" stop-color="#0F3C5F"/>
    </linearGradient>
    <linearGradient id="aCore" x1="1090" y1="204" x2="1360" y2="706" gradientUnits="userSpaceOnUse">
      <stop offset="0" stop-color="#7DD3FC"/>
      <stop offset="1" stop-color="#2DD4BF"/>
    </linearGradient>
  </defs>
  <rect width="1600" height="900" fill="url(#aBg)"/>
  <g stroke="#38BDF8" stroke-opacity="0.24" stroke-width="2">
    <path d="M96 188H760"/>
    <path d="M96 290H700"/>
    <path d="M96 392H760"/>
    <path d="M96 494H700"/>
    <path d="M96 596H760"/>
  </g>
  <g fill="#38BDF8" fill-opacity="0.36">
    <circle cx="760" cy="188" r="8"/>
    <circle cx="700" cy="290" r="8"/>
    <circle cx="760" cy="392" r="8"/>
    <circle cx="700" cy="494" r="8"/>
    <circle cx="760" cy="596" r="8"/>
  </g>
  <text x="116" y="192" fill="#93C5FD" font-family="Arial, Helvetica, sans-serif" font-size="36" font-weight="700" letter-spacing="1.2">AI RECOMMENDATIONS</text>
  <text x="116" y="324" fill="#FFFFFF" font-family="Arial Black, Arial, sans-serif" font-size="104" font-weight="900">SMART</text>
  <text x="116" y="432" fill="#FFFFFF" font-family="Arial Black, Arial, sans-serif" font-size="104" font-weight="900">CURATION</text>
  <text x="116" y="516" fill="#D1D5DB" font-family="Arial, Helvetica, sans-serif" font-size="34" font-weight="500">Looks selected by your style history, fit preference, and budget.</text>
  <rect x="116" y="588" width="500" height="86" rx="43" fill="#22D3EE"/>
  <text x="176" y="646" fill="#0B1325" font-family="Arial, Helvetica, sans-serif" font-size="31" font-weight="800">Get Personalized Picks</text>
  <rect x="930" y="124" width="520" height="650" rx="36" fill="#081427" stroke="#334155" stroke-width="2"/>
  <rect x="968" y="170" width="444" height="124" rx="24" fill="#1E293B"/>
  <text x="1008" y="246" fill="#A5F3FC" font-family="Arial, Helvetica, sans-serif" font-size="35" font-weight="700">Preference Profile</text>
  <rect x="968" y="334" width="444" height="390" rx="24" fill="url(#aCore)" fill-opacity="0.16" stroke="#22D3EE" stroke-opacity="0.58"/>
  <circle cx="1188" cy="528" r="102" fill="url(#aCore)"/>
  <path d="M1188 472L1210 518H1260L1220 548L1236 600L1188 572L1140 600L1156 548L1116 518H1166L1188 472Z" fill="#083344" fill-opacity="0.72"/>
</svg>